<?xml version="1.0" encoding="UTF-8" standalone="no"?>
<!-- Created with Inkscape (http://www.inkscape.org/) -->

<svg
   xmlns:dc="http://purl.org/dc/elements/1.1/"
   xmlns:cc="http://creativecommons.org/ns#"
   xmlns:rdf="http://www.w3.org/1999/02/22-rdf-syntax-ns#"
   xmlns:svg="http://www.w3.org/2000/svg"
   xmlns="http://www.w3.org/2000/svg"
   xmlns:sodipodi="http://sodipodi.sourceforge.net/DTD/sodipodi-0.dtd"
   xmlns:inkscape="http://www.inkscape.org/namespaces/inkscape"
   width="16"
   height="16"
   viewBox="0 0 4.2333333 4.2333336"
   version="1.1"
   id="svg8"
   inkscape:version="0.92.4 (5da689c313, 2019-01-14)"
   sodipodi:docname="iconwhite.svg"
   inkscape:export-filename="C:\Users\Maximiliano\Documents\Mamuth\Fondo gris.png"
   inkscape:export-xdpi="96"
   inkscape:export-ydpi="96">
  <defs
     id="defs2" />
  <sodipodi:namedview
     id="base"
     pagecolor="#ffffff"
     bordercolor="#666666"
     borderopacity="1.0"
     inkscape:pageopacity="0.0"
     inkscape:pageshadow="2"
     inkscape:zoom="33.35716"
     inkscape:cx="6.3926826"
     inkscape:cy="8.9595265"
     inkscape:document-units="px"
     inkscape:current-layer="layer1"
     showgrid="false"
     inkscape:window-width="1366"
     inkscape:window-height="745"
     inkscape:window-x="-8"
     inkscape:window-y="-8"
     inkscape:window-maximized="1"
     units="px" />
  <metadata
     id="metadata5">
    <rdf:RDF>
      <cc:Work
         rdf:about="">
        <dc:format>image/svg+xml</dc:format>
        <dc:type
           rdf:resource="http://purl.org/dc/dcmitype/StillImage" />
        <dc:title></dc:title>
      </cc:Work>
    </rdf:RDF>
  </metadata>
  <g
     inkscape:label="Capa 1"
     inkscape:groupmode="layer"
     id="layer1"
     transform="translate(0,-292.76665)">
    <g
       id="g820"
       transform="matrix(0.0142132,0,0,0.0142132,10.228766,292.43484)">
      <circle
         r="148.92262"
         cy="172.26784"
         cx="-570.74408"
         id="path816"
         style="opacity:1;fill:#ffffff;fill-opacity:1;stroke:none;stroke-width:12.12929344;stroke-miterlimit:4;stroke-dasharray:none;stroke-opacity:0.96984923" />
      <path
         sodipodi:nodetypes="ccscccccccccsccscccscssccccccccscccccccccccccsccccccsscccccccscccccccccccccccccccccccsccccsccccccccscscscccccccscsccscccccccccccscccccccscscscsccccccccccccccccccccscccccccccccccccssccscccsccccscc"
         inkscape:connector-curvature="0"
         id="path825"
         d="m -684.75005,201.19343 c 2.16389,-0.14778 4.13976,-0.34752 4.39083,-0.44386 0.41434,-0.15901 0.45649,-1.45779 0.45649,-14.06807 0,-7.64108 0.10743,-13.95927 0.23872,-14.04043 0.1313,-0.0811 0.68745,0.82099 1.23589,2.00474 0.80843,1.7449 6.42987,14.57089 7.45041,16.99901 0.25929,0.61695 0.32605,0.62547 3.54526,0.45226 1.80454,-0.097 3.35975,-0.25459 3.45601,-0.35001 0.0963,-0.0955 1.58512,-3.43525 3.30857,-7.42184 4.55633,-10.53956 5.56317,-12.62745 5.84757,-12.126 0.25608,0.45154 0.8417,16.70864 0.84869,23.56053 0.002,2.29753 0.11055,4.345 0.24045,4.54993 0.19041,0.30038 1.16205,0.33342 5.01383,0.17045 l 4.77765,-0.20215 -0.0222,-4.07342 c -0.0122,-2.24038 -0.16931,-12.66691 -0.34905,-23.17008 l -0.32677,-19.09666 -3.44505,-4.54328 c -1.89478,-2.49881 -3.58813,-4.49949 -3.76301,-4.44595 -0.17487,0.0535 -3.72358,6.86089 -7.88602,15.12745 -4.16243,8.26658 -7.6751,15.06349 -7.80594,15.10427 -0.27806,0.0867 -0.57419,-0.45626 -7.55681,-13.85473 -6.16862,-11.83655 -8.22487,-15.47248 -8.75024,-15.47248 -0.37976,0 -2.88711,3.18527 -5.3845,6.84032 l -1.33212,1.94963 0.2077,23.41368 0.2077,23.41366 0.73082,-0.004 c 0.40196,-0.002 2.50129,-0.12505 4.66519,-0.27284 z m 60.2026,-2.07988 c 3.04592,-0.83627 5.59362,-1.46493 5.66155,-1.397 0.068,0.068 0.20009,0.59534 0.29369,1.17202 l 0.1702,1.04852 4.87422,0.0761 4.87422,0.0762 -0.23778,-16.385 -0.23778,-16.38499 -2.20997,-3.06663 c -3.16904,-4.39742 -3.36664,-4.60806 -4.58887,-4.89156 -1.24899,-0.28971 -14.72031,-0.35167 -18.16459,-0.0836 l -2.29996,0.17906 v 4.12812 4.12813 l 7.04645,-0.16985 c 10.52936,-0.25379 10.23812,-0.39102 10.23812,4.82421 0,2.9788 -0.0625,3.49062 -0.4101,3.35724 -0.22556,-0.0865 -3.14233,-0.48477 -6.48171,-0.88494 l -6.07162,-0.72757 -1.71549,1.80501 c -3.12725,3.29043 -4.21006,6.06758 -4.47397,11.47473 -0.14395,2.94899 -0.11622,3.15216 0.72303,5.29689 1.03272,2.63919 3.40393,6.25096 4.75394,7.24108 0.54707,0.40124 1.33844,0.70424 1.8393,0.70424 0.4835,0 3.3712,-0.68422 6.41712,-1.5205 z m -2.85107,-7.52146 c -1.56658,-1.13012 -2.10195,-5.62973 -0.99732,-8.382 l 0.55946,-1.39391 4.31142,-0.0766 4.31144,-0.0766 0.18217,2.97746 c 0.27166,4.4399 0.22799,6.13166 -0.1663,6.44316 -0.19167,0.15142 -1.41483,0.35766 -2.71813,0.45834 -1.30332,0.10062 -2.9342,0.25115 -3.62419,0.33441 -0.88968,0.10736 -1.43019,0.0247 -1.85855,-0.28434 z m 32.63497,8.20868 3.87383,-0.003 -0.17945,-9.82711 c -0.0987,-5.40491 -0.20213,-11.95804 -0.22989,-14.56251 l -0.0504,-4.73541 3.04686,-0.72862 c 1.67578,-0.40073 3.439,-0.80397 3.91827,-0.89606 l 0.87139,-0.16744 0.18023,1.86789 c 0.1662,1.72253 0.70448,21.64186 0.71908,26.60991 l 0.006,2.16057 h 4.9484 l 4.94842,1e-5 -0.0997,-14.46655 -0.0997,-14.46653 3.58449,-0.84458 c 1.97146,-0.46453 3.89812,-0.88582 4.28144,-0.93624 l 0.69696,-0.0917 0.37793,15.0543 c 0.20786,8.27986 0.43753,15.11702 0.51037,15.19369 0.0728,0.0767 2.25499,0.17902 4.84926,0.22744 l 4.71681,0.0881 -0.003,-1.62137 c -0.002,-0.89173 -0.13102,-8.37356 -0.28765,-16.62629 l -0.28479,-15.00492 -2.35161,-3.53416 c -1.29338,-1.94379 -2.63801,-3.87293 -2.98807,-4.28699 l -0.63644,-0.75283 -6.69081,3.32402 c -3.67994,1.8282 -6.94044,3.35876 -7.24554,3.40125 -0.43059,0.0599 -1.00784,-0.60907 -2.57919,-2.98935 -1.66668,-2.52469 -2.13521,-3.0547 -2.65126,-2.99911 -0.34476,0.0371 -3.09384,1.31587 -6.10907,2.84166 -4.38281,2.21781 -5.51495,2.68889 -5.64536,2.34904 -0.0898,-0.23381 -0.16314,-1.43559 -0.16314,-2.67062 v -2.24552 l -4.88202,0.13429 c -2.68512,0.0739 -4.93869,0.19097 -5.00796,0.26022 -0.15424,0.15426 0.4188,40.36919 0.58289,40.90751 0.0851,0.27928 0.4012,0.3372 1.15762,0.21215 0.57227,-0.0946 2.78371,-0.17337 4.91431,-0.17506 z m 61.4428,-2.68822 c 5.95325,-2.01543 6.3041,-2.10079 6.65608,-1.61942 0.20438,0.2795 0.37159,1.11146 0.37159,1.8488 v 1.34064 h 4.86225 c 2.67425,0 4.91896,-0.0941 4.98825,-0.20909 0.0984,-0.16337 -0.51936,-40.6999 -0.62458,-40.98116 -0.0144,-0.0384 -2.22149,-0.0697 -4.90477,-0.0697 h -4.87872 v 14.7512 14.75121 l -2.99692,0.70867 c -3.33628,0.78895 -6.73826,1.40764 -6.88994,1.25302 -0.0545,-0.0556 -0.17611,-5.93451 -0.2703,-13.0644 -0.0942,-7.12989 -0.24266,-14.12386 -0.32994,-15.54217 l -0.1587,-2.57874 h -4.8527 -4.85268 l 0.0159,4.94841 c 0.008,2.72161 0.11767,10.36008 0.24208,16.97436 l 0.22622,12.02597 2.69411,3.63536 c 1.48177,1.99945 2.84689,3.69729 3.03363,3.77298 0.77233,0.31308 1.66696,0.0861 7.66919,-1.94594 z m 39.22774,-0.20534 c 2.53749,-0.97645 4.86132,-1.99951 5.16405,-2.27347 0.48902,-0.44256 0.55042,-0.86648 0.55042,-3.80032 0,-1.81621 -0.0314,-3.3011 -0.0697,-3.29977 -0.0384,8.1e-4 -1.63786,0.18843 -3.55449,0.41576 -1.91664,0.22733 -3.64161,0.41442 -3.83327,0.41574 -0.27317,0.002 -0.34848,-2.46815 -0.34848,-11.42768 v -11.43013 h 1.35185 c 0.74351,0 2.31492,-0.0814 3.492,-0.1809 l 2.14016,-0.18091 -0.0769,-4.07055 -0.0769,-4.07053 -3.48479,-0.1394 -3.48479,-0.13939 -0.25079,-4.25144 -0.25081,-4.25145 h -5.02006 -5.02007 l 0.1756,4.46053 0.17561,4.46055 h -2.91977 -2.91976 l 0.003,3.1363 c 0.002,1.72497 0.0808,3.60676 0.17587,4.18175 l 0.1728,1.04544 h 2.75136 2.75135 l 0.0202,1.46361 c 0.0112,0.80499 0.1694,6.42503 0.35173,12.48899 l 0.3315,11.02538 2.07052,2.91379 c 2.73171,3.84425 3.95243,5.26319 4.53754,5.27431 0.26472,0.005 2.55745,-0.78977 5.09494,-1.76621 z m 18.19596,0.939 h 4.0483 l -0.18451,-4.9484 c -0.10147,-2.72162 -0.19468,-8.85158 -0.20711,-13.62215 -0.0191,-7.34303 0.0441,-8.80273 0.4122,-9.51455 0.54595,-1.05574 0.63698,-1.08882 5.21595,-1.89499 2.08162,-0.3665 3.98209,-0.74208 4.22323,-0.83463 0.24114,-0.0925 0.52902,-0.0217 0.6397,0.15733 0.15055,0.24361 0.87009,22.15016 0.95888,29.19379 l 0.0115,0.90604 h 4.86225 c 2.67424,0 4.91035,-0.0941 4.96915,-0.20909 0.0588,-0.115 -0.0117,-7.41537 -0.15679,-16.22306 l -0.2637,-16.01398 -2.36358,-3.64025 c -2.91437,-4.48855 -3.2795,-4.89631 -4.37779,-4.88929 -0.50811,0.003 -3.58123,1.30224 -7.54277,3.18828 -3.6769,1.75053 -6.73243,3.13565 -6.79006,3.07801 -0.0577,-0.0577 -0.18556,-4.47186 -0.28429,-9.80939 l -0.1795,-9.7046 -4.87872,0.10136 c -2.68328,0.0557 -4.91624,0.13508 -4.9621,0.17633 -0.13309,0.11969 0.79666,54.044 0.93911,54.46758 0.0901,0.26798 0.38812,0.33057 0.99552,0.20909 0.4768,-0.0954 2.68864,-0.17338 4.91519,-0.17338 z"
         style="fill:#000000;stroke-width:0.27878341" />
    </g>
  </g>
</svg>
