<?xml version="1.0" encoding="UTF-8" standalone="no"?>
<!-- Created with Inkscape (http://www.inkscape.org/) -->

<svg
   xmlns:dc="http://purl.org/dc/elements/1.1/"
   xmlns:cc="http://creativecommons.org/ns#"
   xmlns:rdf="http://www.w3.org/1999/02/22-rdf-syntax-ns#"
   xmlns:svg="http://www.w3.org/2000/svg"
   xmlns="http://www.w3.org/2000/svg"
   xmlns:sodipodi="http://sodipodi.sourceforge.net/DTD/sodipodi-0.dtd"
   xmlns:inkscape="http://www.inkscape.org/namespaces/inkscape"
   width="16"
   height="16"
   viewBox="0 0 4.2333333 4.2333336"
   version="1.1"
   id="svg8"
   inkscape:version="0.92.4 (5da689c313, 2019-01-14)"
   sodipodi:docname="iconwhitem.svg"
   inkscape:export-filename="C:\Users\Maximiliano\Documents\Mamuth\Fondo gris.png"
   inkscape:export-xdpi="96"
   inkscape:export-ydpi="96">
  <defs
     id="defs2" />
  <sodipodi:namedview
     id="base"
     pagecolor="#ffffff"
     bordercolor="#666666"
     borderopacity="1.0"
     inkscape:pageopacity="0.0"
     inkscape:pageshadow="2"
     inkscape:zoom="33.35716"
     inkscape:cx="2.7652755"
     inkscape:cy="7.7603836"
     inkscape:document-units="px"
     inkscape:current-layer="layer1"
     showgrid="false"
     inkscape:window-width="1366"
     inkscape:window-height="745"
     inkscape:window-x="-8"
     inkscape:window-y="-8"
     inkscape:window-maximized="1"
     units="px" />
  <metadata
     id="metadata5">
    <rdf:RDF>
      <cc:Work
         rdf:about="">
        <dc:format>image/svg+xml</dc:format>
        <dc:type
           rdf:resource="http://purl.org/dc/dcmitype/StillImage" />
        <dc:title></dc:title>
      </cc:Work>
    </rdf:RDF>
  </metadata>
  <g
     inkscape:label="Capa 1"
     inkscape:groupmode="layer"
     id="layer1"
     transform="translate(0,-292.76665)">
    <path
       style="fill:#000000;stroke-width:0.0039624"
       d="m 0.67077685,291.85996 c 0.030756,-0.002 0.058839,-0.005 0.062408,-0.006 0.00589,-0.002 0.00649,-0.0207 0.00649,-0.19995 0,-0.1086 0.00153,-0.1984 0.00339,-0.19956 0.00187,-0.001 0.00977,0.0117 0.017566,0.0285 0.01149,0.0248 0.091389,0.20709 0.1058942,0.24161 0.00368,0.009 0.00463,0.009 0.050389,0.006 0.025648,-0.001 0.047753,-0.004 0.049121,-0.005 0.00137,-10e-4 0.02253,-0.0488 0.047025,-0.10549 0.06476,-0.1498 0.07907,-0.17948 0.083113,-0.17235 0.00364,0.006 0.011963,0.23749 0.012063,0.33487 2.84e-5,0.0327 0.00157,0.0618 0.00342,0.0647 0.00271,0.004 0.016516,0.005 0.071262,0.002 l 0.067906,-0.003 -3.155e-4,-0.0579 c -1.734e-4,-0.0318 -0.00241,-0.18003 -0.00496,-0.32932 l -0.00464,-0.27142 -0.048965,-0.0646 c -0.026931,-0.0355 -0.050999,-0.0639 -0.053485,-0.0632 -0.00249,7.6e-4 -0.052924,0.0975 -0.1120856,0.21501 -0.0591609,0.1175 -0.10908775,0.2141 -0.11094735,0.21468 -0.00395,0.001 -0.00816,-0.006 -0.1074065,-0.19692 -0.087676,-0.16823 -0.1169017,-0.21991 -0.1243689,-0.21991 -0.0054,0 -0.041035,0.0453 -0.076531,0.0972 l -0.018934,0.0277 0.00295,0.33279 0.00295,0.33278 0.010387,-6e-5 c 0.00571,-3e-5 0.035551,-0.002 0.066307,-0.004 z m 0.85567155,-0.0296 c 0.043292,-0.0119 0.079503,-0.0208 0.080469,-0.0199 9.665e-4,9.7e-4 0.00284,0.008 0.00417,0.0167 l 0.00242,0.0149 0.069278,10e-4 0.069278,0.001 -0.00338,-0.23288 -0.00338,-0.23289 -0.031411,-0.0436 c -0.045042,-0.0625 -0.047851,-0.0655 -0.065222,-0.0695 -0.017752,-0.004 -0.2092227,-0.005 -0.2581769,-0.001 l -0.03269,0.003 v 0.0587 0.0587 l 0.1001526,-0.002 c 0.1496559,-0.004 0.1455164,-0.006 0.1455164,0.0686 0,0.0423 -8.883e-4,0.0496 -0.00583,0.0477 -0.00321,-0.001 -0.044663,-0.007 -0.092126,-0.0126 l -0.086297,-0.0103 -0.024383,0.0256 c -0.044448,0.0468 -0.059838,0.0862 -0.063589,0.1631 -0.00205,0.0419 -0.00165,0.0448 0.010277,0.0753 0.014678,0.0375 0.048381,0.0888 0.067569,0.10292 0.00778,0.006 0.019024,0.01 0.026142,0.01 0.00687,0 0.047916,-0.01 0.091208,-0.0216 z m -0.040523,-0.1069 c -0.022266,-0.0161 -0.029876,-0.08 -0.014175,-0.11914 l 0.00795,-0.0198 0.061279,-10e-4 0.061279,-0.001 0.00259,0.0423 c 0.00386,0.0631 0.00324,0.0872 -0.00236,0.0916 -0.00272,0.002 -0.020109,0.005 -0.038633,0.007 -0.018524,0.001 -0.041704,0.004 -0.051511,0.005 -0.012645,0.002 -0.020328,3.5e-4 -0.026416,-0.004 z m 0.4638473,0.11667 0.05506,-4e-5 -0.00255,-0.13968 c -0.0014,-0.0768 -0.00287,-0.16996 -0.00327,-0.20698 l -7.163e-4,-0.0673 0.043306,-0.0104 c 0.023818,-0.006 0.048879,-0.0114 0.055691,-0.0127 l 0.012385,-0.002 0.00256,0.0265 c 0.00236,0.0245 0.010013,0.3076 0.01022,0.37821 l 8.52e-5,0.0307 h 0.070333 0.070333 l -0.00142,-0.20561 -0.00142,-0.20562 0.050947,-0.012 c 0.028021,-0.007 0.055405,-0.0126 0.060853,-0.0133 l 0.00991,-10e-4 0.00537,0.21397 c 0.00295,0.11768 0.00622,0.21486 0.00725,0.21595 0.00103,0.001 0.032051,0.003 0.068923,0.003 l 0.067041,10e-4 -4.26e-5,-0.023 c -2.84e-5,-0.0127 -0.00186,-0.11902 -0.00409,-0.23631 l -0.00405,-0.21327 -0.033424,-0.0502 c -0.018383,-0.0276 -0.037495,-0.055 -0.04247,-0.0609 l -0.00905,-0.0107 -0.095098,0.0473 c -0.052304,0.026 -0.098646,0.0477 -0.1029823,0.0483 -0.00612,8.5e-4 -0.014325,-0.009 -0.036659,-0.0425 -0.023689,-0.0359 -0.030348,-0.0434 -0.037683,-0.0426 -0.0049,5.2e-4 -0.043973,0.0187 -0.086829,0.0404 -0.062294,0.0315 -0.078385,0.0382 -0.080239,0.0334 -0.00128,-0.003 -0.00232,-0.0204 -0.00232,-0.038 v -0.0319 l -0.069389,0.002 c -0.038164,0.001 -0.070195,0.003 -0.071179,0.004 -0.00219,0.002 0.00595,0.57377 0.00828,0.58142 0.00121,0.004 0.0057,0.005 0.016453,0.003 0.00813,-0.001 0.039565,-0.002 0.069848,-0.002 z m 0.8732988,-0.0382 c 0.084615,-0.0287 0.089602,-0.0299 0.094604,-0.023 0.0029,0.004 0.00528,0.0158 0.00528,0.0263 v 0.0191 h 0.069108 c 0.03801,0 0.069914,-10e-4 0.070899,-0.003 0.0014,-0.002 -0.00738,-0.57847 -0.00888,-0.58247 -2.046e-4,-5.5e-4 -0.031574,-9.9e-4 -0.069712,-9.9e-4 h -0.069342 v 0.20966 0.20966 l -0.042596,0.0101 c -0.047419,0.0112 -0.095772,0.02 -0.097928,0.0178 -7.746e-4,-7.9e-4 -0.0025,-0.0843 -0.00384,-0.18568 -0.00134,-0.10134 -0.00345,-0.20075 -0.00469,-0.22091 l -0.00226,-0.0366 h -0.068972 -0.068972 l 2.26e-4,0.0703 c 1.137e-4,0.0387 0.00167,0.14725 0.00344,0.24126 l 0.00322,0.17093 0.038292,0.0517 c 0.021061,0.0284 0.040463,0.0525 0.043118,0.0536 0.010977,0.004 0.023693,10e-4 0.1090037,-0.0277 z m 0.5575517,-0.003 c 0.036066,-0.0139 0.069095,-0.0284 0.073398,-0.0323 0.00695,-0.006 0.00782,-0.0123 0.00782,-0.054 0,-0.0258 -4.463e-4,-0.0469 -9.906e-4,-0.0469 -5.458e-4,1e-5 -0.023279,0.003 -0.050521,0.006 -0.027242,0.003 -0.051759,0.006 -0.054483,0.006 -0.00388,3e-5 -0.00495,-0.0351 -0.00495,-0.16242 v -0.16246 h 0.019214 c 0.010568,0 0.032902,-10e-4 0.049632,-0.003 l 0.030418,-0.003 -0.00109,-0.0579 -0.00109,-0.0578 -0.04953,-0.002 -0.04953,-0.002 -0.00356,-0.0604 -0.00356,-0.0604 h -0.071351 -0.071351 l 0.0025,0.0634 0.0025,0.0634 h -0.041499 -0.041499 l 4.27e-5,0.0446 c 2.84e-5,0.0245 0.00115,0.0513 0.0025,0.0594 l 0.00246,0.0149 h 0.039106 0.039105 l 2.871e-4,0.0208 c 1.592e-4,0.0114 0.00241,0.0913 0.005,0.17751 l 0.00471,0.15671 0.029429,0.0414 c 0.038826,0.0546 0.056177,0.0748 0.064493,0.075 0.00376,7e-5 0.03635,-0.0112 0.072415,-0.0251 z m 0.2586228,0.0134 h 0.057539 l -0.00262,-0.0703 c -0.00144,-0.0387 -0.00277,-0.12581 -0.00294,-0.19362 -2.715e-4,-0.10437 6.268e-4,-0.12511 0.00586,-0.13523 0.00776,-0.015 0.00905,-0.0155 0.074135,-0.0269 0.029587,-0.005 0.056598,-0.0105 0.060026,-0.0119 0.00343,-10e-4 0.00752,-3.1e-4 0.00909,0.002 0.00214,0.003 0.012367,0.31482 0.013629,0.41494 l 1.635e-4,0.0129 h 0.069108 c 0.038009,0 0.069792,-10e-4 0.070628,-0.003 8.357e-4,-0.002 -1.663e-4,-0.10539 -0.00223,-0.23058 l -0.00375,-0.22761 -0.033594,-0.0517 c -0.041422,-0.0638 -0.046612,-0.0696 -0.062222,-0.0695 -0.00722,4e-5 -0.050901,0.0185 -0.1072069,0.0453 -0.052261,0.0249 -0.095689,0.0446 -0.096508,0.0437 -8.201e-4,-8.2e-4 -0.00264,-0.0636 -0.00404,-0.13942 l -0.00255,-0.13793 -0.069342,10e-4 c -0.038138,7.9e-4 -0.069876,0.002 -0.070527,0.002 -0.00189,0.002 0.011323,0.76814 0.013348,0.77416 0.00128,0.004 0.00552,0.005 0.014149,0.003 0.00678,-0.001 0.038214,-0.002 0.069861,-0.002 z"
       id="path825"
       inkscape:connector-curvature="0"
       sodipodi:nodetypes="ccscccccccccsccscccscssccccccccscccccccccccccsccccccsscccccccscccccccccccccccccccccccsccccsccccccccscscscccccccscsccscccccccccccscccccccscscscsccccccccccccccccccccscccccccccccccccssccscccsccccscc" />
    <circle
       style="opacity:1;fill:#ffffff;fill-opacity:1;stroke:none;stroke-width:0.17239608;stroke-miterlimit:4;stroke-dasharray:none;stroke-opacity:0.96984923"
       id="path816"
       cx="2.1166668"
       cy="294.88333"
       r="2.116667" />
    <path
       style="fill:#000000;stroke-width:0.01341495"
       d="m 1.2745857,296.23219 c 0.1041268,-0.007 0.1992032,-0.017 0.2112862,-0.0203 0.019941,-0.007 0.021972,-0.0701 0.021972,-0.67695 0,-0.36767 0.00519,-0.67169 0.011477,-0.67561 0.00633,-0.003 0.033078,0.0396 0.05947,0.0965 0.0389,0.084 0.3094032,0.70112 0.3585115,0.81798 0.012459,0.0305 0.015675,0.0305 0.170595,0.0203 0.086832,-0.003 0.1616708,-0.0135 0.1663022,-0.0169 0.00463,-0.003 0.076277,-0.16522 0.1592062,-0.35715 0.219249,-0.50715 0.2676964,-0.60764 0.2813842,-0.58349 0.012323,0.0203 0.040501,0.80403 0.04084,1.13372 9.62e-5,0.11071 0.00531,0.20923 0.011579,0.21905 0.00918,0.0135 0.055916,0.0169 0.2412619,0.007 l 0.2299,-0.0103 -0.00107,-0.19603 c -5.871e-4,-0.1076 -0.00816,-0.6095 -0.016793,-1.11493 l -0.015709,-0.9189 -0.165774,-0.21871 c -0.091177,-0.12019 -0.1726603,-0.21634 -0.1810769,-0.21397 -0.00843,0.002 -0.1791774,0.33009 -0.3794727,0.72794 -0.2002933,0.39779 -0.3693233,0.72484 -0.375619,0.7268 -0.013373,0.003 -0.027626,-0.0203 -0.3636315,-0.66668 -0.2968326,-0.56955 -0.395778,-0.74452 -0.4210586,-0.74452 -0.018282,0 -0.1389267,0.15336 -0.2591006,0.32908 l -0.064103,0.0937 0.00999,1.12668 0.00999,1.12665 0.035165,-2.1e-4 c 0.019332,-10e-5 0.1203602,-0.007 0.2244866,-0.0135 z"
       id="path825-6"
       inkscape:connector-curvature="0"
       sodipodi:nodetypes="ccscccccccccsccscccscssccccccc" />
  </g>
</svg>
