<?xml version="1.0" encoding="UTF-8" standalone="no"?>
<!-- Created with Inkscape (http://www.inkscape.org/) -->

<svg
   xmlns:dc="http://purl.org/dc/elements/1.1/"
   xmlns:cc="http://creativecommons.org/ns#"
   xmlns:rdf="http://www.w3.org/1999/02/22-rdf-syntax-ns#"
   xmlns:svg="http://www.w3.org/2000/svg"
   xmlns="http://www.w3.org/2000/svg"
   xmlns:sodipodi="http://sodipodi.sourceforge.net/DTD/sodipodi-0.dtd"
   xmlns:inkscape="http://www.inkscape.org/namespaces/inkscape"
   width="1122.5197"
   height="793.70081"
   viewBox="0 0 296.99997 210.00003"
   version="1.1"
   id="svg8"
   inkscape:version="0.92.4 (5da689c313, 2019-01-14)"
   sodipodi:docname="logomamuth.svg"
   inkscape:export-filename="C:\Users\Maximiliano\Documents\Mamuth\Fondo gris.png"
   inkscape:export-xdpi="96"
   inkscape:export-ydpi="96">
  <defs
     id="defs2" />
  <sodipodi:namedview
     id="base"
     pagecolor="#ffffff"
     bordercolor="#666666"
     borderopacity="1.0"
     inkscape:pageopacity="0.0"
     inkscape:pageshadow="2"
     inkscape:zoom="0.39653902"
     inkscape:cx="2.7652755"
     inkscape:cy="25.592343"
     inkscape:document-units="px"
     inkscape:current-layer="layer1"
     showgrid="false"
     inkscape:window-width="1366"
     inkscape:window-height="745"
     inkscape:window-x="-8"
     inkscape:window-y="-8"
     inkscape:window-maximized="1"
     units="px" />
  <metadata
     id="metadata5">
    <rdf:RDF>
      <cc:Work
         rdf:about="">
        <dc:format>image/svg+xml</dc:format>
        <dc:type
           rdf:resource="http://purl.org/dc/dcmitype/StillImage" />
        <dc:title></dc:title>
      </cc:Work>
    </rdf:RDF>
  </metadata>
  <g
     inkscape:label="Capa 1"
     inkscape:groupmode="layer"
     id="layer1"
     transform="translate(0,-86.999959)">
    <path
       style="fill:#000000;stroke-width:0.31910244"
       d="m 18.000297,225.1496 c 2.476861,-0.16106 4.738458,-0.40266 5.025879,-0.48319 0.474337,-0.16107 0.522657,-1.66703 0.522657,-16.1025 0,-8.74584 0.123215,-15.97767 0.273006,-16.07109 0.150595,-0.0805 0.786803,0.94224 1.414635,2.29518 0.92532,1.99721 7.359796,16.6775 8.527937,19.45749 0.29636,0.72479 0.372866,0.72479 4.057958,0.48319 2.065501,-0.0805 3.845675,-0.32213 3.955843,-0.40266 0.11033,-0.0805 1.8144,-3.92999 3.787046,-8.49538 5.215293,-12.06379 6.367714,-14.454 6.693308,-13.8798 0.293139,0.48319 0.963411,19.12569 0.971465,26.96796 0.0023,2.63341 0.126436,4.97691 0.275421,5.21046 0.218244,0.32213 1.330077,0.40266 5.738916,0.16106 l 5.468647,-0.2416 -0.02541,-4.66283 c -0.01396,-2.56094 -0.194083,-14.49829 -0.399441,-26.52101 l -0.373672,-21.85816 -3.943279,-5.20241 c -2.168824,-2.8589 -4.107083,-5.14603 -4.307287,-5.08966 -0.200526,0.0612 -4.262108,7.85193 -9.026547,17.31532 -4.76439,9.46258 -8.785126,17.24203 -8.934884,17.28874 -0.318104,0.0805 -0.657146,-0.48319 -8.649727,-15.85848 -7.060778,-13.548 -9.4144,-17.70993 -10.015753,-17.70993 -0.434876,0 -3.304656,3.64813 -6.163242,7.82777 l -1.524804,2.23076 0.237571,26.80045 0.237571,26.79964 0.836492,-0.005 c 0.459842,-0.002 2.863016,-0.16107 5.339877,-0.32213 z m 68.909465,-2.38376 c 3.486418,-0.95834 6.402584,-1.67508 6.480379,-1.6026 0.07783,0.0781 0.228712,0.64426 0.335821,1.3449 l 0.194889,1.19993 5.579138,0.0805 5.579141,0.0805 -0.2722,-18.75444 -0.2722,-18.75524 -2.52961,-3.51122 c -3.627353,-5.03329 -3.853569,-5.27489 -5.252501,-5.59702 -1.429615,-0.32213 -16.849251,-0.40266 -20.791661,-0.0805 l -2.632612,0.2416 v 4.72726 4.72727 l 8.065551,-0.16107 c 12.052182,-0.32213 11.718817,-0.4832 11.718817,5.52454 0,3.40653 -0.07154,3.99442 -0.469505,3.8414 -0.25851,-0.0805 -3.596829,-0.56373 -7.419148,-1.01471 l -6.949723,-0.82948 -1.963627,2.06163 c -3.579514,3.76893 -4.818911,6.94191 -5.120989,13.13487 -0.165092,3.37432 -0.132878,3.60786 0.827634,6.06411 1.182058,3.01997 3.896249,7.15129 5.441508,8.28841 0.626544,0.4832 1.532053,0.80533 2.105284,0.80533 0.553259,0 3.858801,-0.80533 7.345219,-1.7395 z m -3.263424,-8.60894 c -1.793139,-1.29657 -2.405992,-6.44261 -1.141549,-9.59465 l 0.640234,-1.59455 4.934958,-0.0805 4.934958,-0.0805 0.20858,3.40653 c 0.310856,5.0816 0.260925,7.02244 -0.190057,7.37678 -0.219049,0.16107 -1.619431,0.40267 -3.111217,0.56373 -1.491786,0.0805 -3.358532,0.32213 -4.148315,0.40266 -1.018335,0.16107 -1.637067,0.0282 -2.12735,-0.32213 z m 37.354832,9.39574 4.43413,-0.003 -0.20536,-11.24879 c -0.11274,-6.18491 -0.23113,-13.68733 -0.26334,-16.66864 l -0.0577,-5.41985 3.48755,-0.83754 c 1.91813,-0.4832 3.93635,-0.91807 4.48494,-1.02276 l 0.9974,-0.16107 0.20616,2.13412 c 0.19006,1.97304 0.80638,24.77183 0.82305,30.45824 l 0.007,2.47235 h 5.6641 5.6641 l -0.11436,-16.55831 -0.11435,-16.55912 4.10289,-0.96639 c 2.2566,-0.56373 4.46191,-1.01471 4.90065,-1.07109 l 0.79808,-0.0805 0.43246,17.23157 c 0.23757,9.47707 0.50091,17.30323 0.58386,17.39101 0.083,0.0805 2.58115,0.2416 5.55055,0.2416 l 5.39899,0.0805 -0.003,-1.85226 c -0.002,-1.02276 -0.14979,-9.58499 -0.32938,-19.03066 l -0.32616,-17.17519 -2.69172,-4.04274 c -1.48043,-2.2227 -3.01957,-4.42929 -3.42022,-4.90443 l -0.72882,-0.8617 -7.65849,3.80919 c -4.21218,2.09385 -7.94422,3.84141 -8.29344,3.88973 -0.49285,0.0684 -1.15363,-0.7248 -2.95224,-3.42264 -1.90774,-2.89112 -2.444,-3.49512 -3.03471,-3.43069 -0.39461,0.0419 -3.54126,1.50596 -6.99257,3.25352 -5.0167,2.53678 -6.31255,3.07634 -6.46185,2.68979 -0.10309,-0.2416 -0.18684,-1.64287 -0.18684,-3.06024 v -2.56899 l -5.58808,0.16106 c -3.07344,0.0805 -5.65298,0.2416 -5.73223,0.32213 -0.17637,0.16107 0.47917,46.2072 0.66681,46.82328 0.0974,0.32213 0.45904,0.40266 1.325,0.2416 0.65473,-0.0805 3.18628,-0.16107 5.62505,-0.16107 z m 70.32904,-3.07634 c 6.81427,-2.31129 7.21589,-2.40793 7.61871,-1.85225 0.23354,0.32213 0.42521,1.27241 0.42521,2.118 v 1.53818 h 5.56545 c 3.06104,0 5.63036,-0.0805 5.70968,-0.2416 0.11275,-0.16107 -0.59433,-46.5857 -0.71513,-46.90783 -0.0165,-0.0443 -2.54273,-0.0797 -5.61409,-0.0797 h -5.58429 v 16.88447 16.88447 l -3.43037,0.81338 c -3.81877,0.90196 -7.71277,1.61065 -7.8864,1.43348 -0.0624,-0.0636 -0.20133,-6.7889 -0.30924,-14.9533 -0.10791,-8.16118 -0.27784,-16.16692 -0.3777,-17.79046 l -0.182,-2.94749 h -5.5545 -5.55449 l 0.0182,5.66144 c 0.009,3.11661 0.13449,11.85843 0.27703,19.4293 l 0.25931,13.76544 3.08376,4.16353 c 1.6961,2.28713 3.25859,4.22797 3.4724,4.31655 0.88401,0.32213 1.90806,0.0805 8.77836,-2.23075 z m 44.9011,-0.2416 c 2.90481,-1.1194 5.5648,-2.28713 5.91109,-2.6012 0.55568,-0.4832 0.62816,-0.99056 0.62816,-4.34877 0,-2.07774 -0.0359,-3.77698 -0.0798,-3.77698 -0.0439,8.1e-4 -1.8748,0.2416 -4.06851,0.4832 -2.19371,0.2416 -4.16837,0.4832 -4.38742,0.4832 -0.31407,0.002 -0.39461,-2.8267 -0.39461,-13.08011 v -13.08333 h 1.54704 c 0.85123,0 2.64952,-0.0805 3.99683,-0.2416 l 2.4498,-0.2416 -0.0886,-4.66283 -0.0886,-4.65479 -3.98878,-0.16106 -3.98878,-0.16107 -0.28992,-4.86417 -0.28992,-4.86417 h -5.746 -5.746 l 0.20133,5.10577 0.20133,5.10577 h -3.3421 -3.34202 l 0.003,3.59175 c 0.002,1.97305 0.0926,4.13132 0.20133,4.78364 l 0.19811,1.19993 h 3.14931 3.14882 l 0.0231,1.67508 c 0.0128,0.91807 0.19328,7.35263 0.40267,14.29535 l 0.3785,12.62026 2.37008,3.33405 c 3.12708,4.39708 4.52432,6.02384 5.19354,6.03995 0.30603,0.006 2.92736,-0.90197 5.83218,-2.02137 z m 20.82759,1.07914 h 4.63384 l -0.20938,-5.66145 c -0.11275,-3.11661 -0.22549,-10.13181 -0.23355,-15.59272 -0.0219,-8.40519 0.0505,-10.07544 0.47515,-10.89043 0.62815,-1.20799 0.73284,-1.24825 5.97068,-2.16632 2.38296,-0.40267 4.55815,-0.8456 4.83438,-0.95834 0.27381,-0.0805 0.60399,-0.025 0.73284,0.16106 0.16912,0.2416 0.99619,25.35328 1.09766,33.41621 l 0.0131,1.03887 h 5.56561 c 3.06104,0 5.62037,-0.0805 5.68802,-0.2416 0.0673,-0.16107 -0.0134,-8.48733 -0.17717,-18.56921 l -0.29797,-18.33003 -2.7051,-4.16354 c -3.33566,-5.13798 -3.75362,-5.60507 -5.01073,-5.59701 -0.57984,0.003 -4.09911,1.48985 -8.63366,3.64812 -4.20864,2.00527 -7.70617,3.59176 -7.77221,3.51928 -0.066,-0.066 -0.20938,-5.12188 -0.32213,-11.22786 l -0.20133,-11.10786 -5.58413,0.0805 c -3.07152,0.0636 -5.62762,0.16107 -5.67997,0.16107 -0.15301,0.16106 0.91163,61.86032 1.07511,62.34513 0.1047,0.32213 0.44293,0.40266 1.13954,0.24159 0.54762,-0.0805 3.07715,-0.16106 5.62601,-0.16106 z"
       id="path825"
       inkscape:connector-curvature="0"
       sodipodi:nodetypes="ccscccccccccsccscccscssccccccccscccccccccccccsccccccsscccccccscccccccccccccccccccccccsccccsccccccccscscscccccccscsccscccccccccccscccccccscscscsccccccccccccccccccccscccccccccccccccssccscccsccccscc" />
  </g>
</svg>
